PathFileType	4	(X/Y/Z)	\\Move.snu.ac.kr\motion\Animal\091204_091205_Bird\091205_bird\Project 2\Capture day 2\Session 1\pigeon_009.trc
DataRate	CameraRate	NumFrames	NumMarkers	Units	OrigDataRate	OrigDataStartFrame	OrigNumFrames
240.0	240.0	24	14	mm	240.0	253	2292
Frame#	Time	14MarkersBird:Head			14MarkersBird:C_back			14MarkersBird:Spine			14MarkersBird:L-shoulder			14MarkersBird:L-elbow			14MarkersBird:L-wrist			14MarkersBird:L-hand			14MarkersBird:R-shoulder			14MarkersBird:R-elbow			14MarkersBird:R-Wrist			14MarkersBird:R-hand			14MarkersBird:C_Tail			14MarkersBird:L-Tale			14MarkersBird:R-Tale			
		X1	Y1	Z1	X2	Y2	Z2	X3	Y3	Z3	X4	Y4	Z4	X5	Y5	Z5	X6	Y6	Z6	X7	Y7	Z7	X8	Y8	Z8	X9	Y9	Z9	X10	Y10	Z10	X11	Y11	Z11	X12	Y12	Z12	X13	Y13	Z13	X14	Y14	Z14	

1019	4.242	-443.08569	1706.75732	-3719.20508	-420.37430	1717.77893	-3659.99902	-416.60571	1726.01025	-3615.03052	-452.05969	1711.19189	-3681.06714	-472.55548	1708.55225	-3653.83057	-493.93817	1689.28931	-3684.87427	-509.66211	1667.76343	-3693.74634	-411.10919	1701.21912	-3696.51978	-384.06473	1691.14880	-3689.11157	-398.28302	1669.04236	-3722.74365	-395.77518	1633.66943	-3742.80005	-391.97424	1650.21362	-3502.16528	-479.48209	1691.20642	-3539.98560	-306.08331	1652.07544	-3587.70508	
1020	4.246	-449.55045	1699.71326	-3735.52417	-426.99142	1710.95447	-3676.74341	-422.93420	1719.12952	-3630.92432	-458.38470	1704.55835	-3697.62305	-477.79990	1704.27112	-3668.53076	-498.44199	1688.20251	-3701.62524	-512.60022	1665.18811	-3709.98706	-417.65445	1694.77026	-3712.86768	-389.21240	1686.93323	-3703.59473	-403.94949	1668.25684	-3738.77759	-402.60608	1630.98230	-3756.50562	-399.00034	1641.08923	-3520.12769	-485.67563	1681.94690	-3556.11865	-313.49963	1643.64185	-3603.82129	
1021	4.250	-456.06009	1692.63123	-3751.93286	-433.68088	1703.74829	-3693.74170	-429.24292	1712.21899	-3646.87476	-464.76151	1697.51379	-3714.31592	-482.38580	1700.87964	-3683.23340	-503.51746	1688.51819	-3717.41528	-517.38806	1664.44934	-3723.70166	-424.28104	1687.85754	-3729.21948	-394.42841	1683.46106	-3717.70532	-408.00128	1668.12622	-3754.78809	-406.26721	1629.24963	-3769.76392	-405.44785	1632.36682	-3537.88477	-491.80469	1672.90320	-3572.30322	-321.05075	1635.45007	-3619.56665	
1022	4.254	-462.62167	1685.40015	-3768.48071	-440.36859	1696.21680	-3710.90967	-435.53159	1705.27783	-3662.88062	-471.16190	1690.13489	-3731.11182	-486.05789	1697.89893	-3698.20117	-508.90573	1689.53088	-3732.36230	-523.57111	1664.96094	-3734.97510	-430.99548	1680.60083	-3745.56543	-400.27377	1680.49365	-3731.46021	-410.88351	1668.18799	-3770.59155	-407.16211	1628.14124	-3782.12476	-411.42847	1624.10388	-3555.25903	-497.93958	1664.38940	-3588.54443	-328.33817	1628.11853	-3635.06079	
1023	4.258	-469.21286	1677.98071	-3785.12695	-446.99167	1688.43457	-3728.15503	-441.80002	1698.30591	-3678.94214	-477.54764	1682.55737	-3747.97510	-488.85193	1694.80054	-3713.75708	-514.22620	1690.63306	-3746.77148	-530.32562	1666.69141	-3744.25562	-437.80988	1673.25525	-3761.93115	-407.17978	1677.80444	-3745.04785	-413.22223	1668.25281	-3786.09546	-405.80612	1627.74548	-3793.24756	-417.20688	1616.32263	-3572.20801	-504.18225	1656.82190	-3604.86133	-335.05212	1621.99670	-3650.50635	
1024	4.262	-475.77679	1670.41309	-3801.78955	-453.52377	1680.50317	-3745.39990	-448.04810	1691.30237	-3695.05811	-483.89182	1674.89563	-3764.87231	-490.88452	1690.99817	-3729.93140	-519.08844	1691.30750	-3761.07227	-536.49701	1669.71692	-3752.23901	-444.74652	1666.06665	-3778.34985	-415.28699	1675.13464	-3758.78076	-415.75320	1668.25024	-3801.29150	-402.97119	1628.50000	-3803.05566	-423.09402	1609.08325	-3588.75586	-510.57382	1650.73596	-3621.23975	-341.11905	1617.03796	-3666.11694	
1025	4.267	-482.26538	1662.76343	-3818.42358	-459.97333	1672.53577	-3762.57495	-454.27567	1684.26697	-3711.22949	-490.19183	1667.19824	-3781.75122	-492.35162	1686.05505	-3746.59106	-523.30945	1691.13513	-3775.67969	-540.88269	1673.76953	-3759.91333	-451.79694	1659.10315	-3794.81006	-424.38843	1672.17175	-3772.95630	-419.01123	1667.98132	-3816.18286	-399.72684	1630.99841	-3811.79956	-429.29312	1602.48450	-3604.90527	-517.04297	1646.55481	-3637.66260	-346.69186	1612.94092	-3682.05151	
1026	4.271	-488.66055	1655.08826	-3835.02222	-466.35904	1664.60596	-3779.59009	-460.48242	1677.19910	-3727.45532	-496.47760	1659.47034	-3798.54541	-493.72461	1680.02747	-3763.69678	-527.06299	1689.84778	-3790.82056	-542.91388	1678.24915	-3768.54736	-458.86346	1652.19739	-3811.23755	-434.02261	1668.61194	-3787.75830	-423.09021	1667.11060	-3830.79224	-397.31326	1635.70544	-3820.12207	-435.82684	1596.62305	-3620.61572	-523.47119	1644.12488	-3654.16919	-351.99786	1609.47632	-3698.39404	
1027	4.275	-494.97723	1647.41687	-3851.60034	-472.69513	1656.71826	-3796.35498	-466.66830	1670.09790	-3743.73511	-502.79855	1651.70178	-3815.20508	-495.70041	1673.46118	-3781.30957	-530.84839	1687.38574	-3806.44360	-543.19299	1682.55249	-3779.31055	-465.78195	1645.06653	-3827.57031	-443.70523	1664.25195	-3803.28662	-427.68341	1665.35596	-3845.26294	-396.79050	1642.58228	-3829.00024	-442.60034	1591.56421	-3635.85474	-529.82861	1642.54456	-3670.87207	-357.19354	1606.61658	-3715.18701	
1028	4.279	-501.23959	1639.75037	-3868.17651	-478.98056	1648.83411	-3812.84009	-472.83304	1662.96313	-3760.06982	-509.18622	1643.87427	-3831.73071	-498.75626	1666.82861	-3799.34448	-535.28546	1683.86816	-3822.28027	-543.25684	1686.26233	-3792.79224	-472.41833	1637.51550	-3843.85522	-453.08240	1659.00781	-3819.59668	-432.29333	1662.53662	-3859.82056	-398.64893	1650.77917	-3839.57495	-449.49408	1587.30359	-3650.65332	-536.23309	1640.58386	-3687.88428	-362.35751	1604.28552	-3732.44897	
1029	4.283	-507.47299	1632.07251	-3884.74438	-485.22144	1640.92078	-3829.10718	-478.97647	1655.79431	-3776.45776	-515.63220	1635.98303	-3848.15527	-503.07303	1660.20227	-3817.53882	-540.85211	1679.44385	-3838.00488	-544.78052	1688.97302	-3808.84619	-478.69760	1629.51001	-3860.19336	-461.82288	1652.88135	-3836.62549	-436.49948	1658.44397	-3874.68042	-402.50867	1658.55347	-3852.80688	-456.36194	1583.73682	-3665.13379	-542.85718	1637.31628	-3705.25464	-367.56372	1601.94836	-3750.15381	
1030	4.287	-513.70294	1624.36523	-3901.24780	-491.41714	1632.96521	-3845.25049	-485.09845	1648.59045	-3792.89917	-522.07306	1628.04150	-3864.49390	-508.69501	1653.44067	-3835.55615	-547.74506	1674.12292	-3853.38477	-549.01556	1690.03613	-3826.78540	-484.57629	1621.12744	-3876.59131	-469.46310	1645.94470	-3854.16724	-440.12643	1652.77148	-3889.99341	-407.26041	1663.68604	-3869.20020	-462.98868	1580.63538	-3679.49951	-549.80994	1632.35034	-3722.91895	-372.88498	1598.55261	-3768.22241	
1031	4.292	-519.93695	1616.62268	-3917.62500	-497.55032	1624.97681	-3861.32104	-491.19870	1641.35156	-3809.39404	-528.40906	1620.07410	-3880.72241	-515.70569	1646.30444	-3853.02881	-555.92334	1667.71179	-3868.34570	-556.63611	1688.60437	-3845.60498	-490.06787	1612.52563	-3892.95386	-475.54941	1638.30176	-3871.97852	-443.22940	1645.20508	-3905.79565	-411.59268	1664.20496	-3888.54907	-469.14108	1577.66199	-3693.99268	-557.09332	1625.73181	-3740.72144	-378.35147	1593.00903	-3786.53394	
1032	4.296	-526.16046	1608.84692	-3933.85815	-503.63223	1617.01404	-3877.31396	-497.27710	1634.07678	-3825.94189	-534.58160	1612.14392	-3896.83105	-524.10431	1638.61890	-3869.75171	-565.23877	1659.90991	-3882.98755	-567.67902	1684.00110	-3864.29199	-495.32120	1603.91602	-3909.24951	-479.97324	1630.01160	-3889.83374	-446.01627	1635.59595	-3922.08105	-414.63681	1659.02014	-3909.97510	-474.69666	1574.40308	-3708.82642	-564.58740	1617.82568	-3758.47241	-383.97733	1584.86780	-3804.91919	
1033	4.300	-532.34814	1601.04285	-3949.98633	-509.70245	1609.16138	-3893.20947	-503.33350	1626.76563	-3842.54272	-540.60510	1604.33667	-3912.87280	-533.67725	1630.38354	-3885.80078	-575.48383	1650.49036	-3897.56616	-581.48767	1675.96802	-3882.30273	-500.56171	1595.47095	-3925.54785	-483.13666	1621.04053	-3907.56006	-448.80463	1624.04553	-3938.88477	-416.46198	1648.19287	-3932.52905	-479.76917	1570.42163	-3724.11279	-572.05353	1609.15308	-3775.96558	-389.80527	1574.57190	-3823.15210	
1034	4.304	-538.46637	1593.25854	-3966.08154	-515.82806	1601.51221	-3909.01563	-509.36768	1619.41760	-3859.19604	-546.53790	1596.69226	-3928.93140	-544.13013	1621.67004	-3901.50464	-586.34912	1639.39233	-3912.42993	-596.88849	1664.60327	-3899.85181	-505.94977	1587.24927	-3941.92334	-485.74753	1611.27283	-3925.13843	-452.04364	1610.88000	-3956.32300	-418.08072	1632.74695	-3955.78711	-484.72162	1565.33777	-3739.82642	-579.20789	1600.14563	-3792.99658	-395.89987	1563.09253	-3840.94678	
1035	4.308	-544.48022	1585.59241	-3982.22095	-522.05884	1594.10706	-3924.79028	-515.37939	1612.03223	-3875.90112	-552.45612	1589.19092	-3945.07593	-555.06207	1612.58240	-3917.35449	-597.40460	1626.70605	-3927.96191	-612.61774	1650.21960	-3917.63794	-511.53937	1579.22119	-3958.41162	-488.46582	1600.68225	-3942.73730	-456.23172	1596.49170	-3974.48169	-420.78998	1613.97351	-3979.53442	-490.00629	1558.93103	-3755.86255	-585.86609	1591.04480	-3809.46729	-402.29709	1551.39514	-3857.99316	
1036	4.313	-550.37469	1578.14136	-3998.46411	-528.33612	1586.90869	-3940.63501	-521.36853	1604.60876	-3892.65869	-558.42102	1581.79541	-3961.34521	-565.97351	1603.18140	-3933.70581	-608.14941	1612.63928	-3944.52124	-627.65485	1633.28284	-3936.31982	-517.32043	1571.36646	-3974.99805	-491.69049	1589.44702	-3960.57764	-461.79797	1581.27051	-3993.36108	-425.54807	1592.92542	-4003.29370	-495.93491	1551.20630	-3772.14160	-592.05450	1581.92432	-3825.45654	-408.96414	1540.24500	-3874.08276	
1037	4.317	-556.16840	1570.95178	-4014.84351	-534.55176	1579.89783	-3956.66333	-527.33490	1597.14661	-3909.46826	-564.45496	1574.50439	-3977.75513	-576.46582	1593.36755	-3950.55005	-618.09222	1597.52112	-3962.33105	-641.25842	1614.39746	-3956.23413	-523.24066	1563.73926	-3991.63403	-495.58682	1577.85669	-3978.76074	-469.04880	1565.63330	-4012.79541	-432.83319	1570.45740	-4026.42212	-502.51303	1542.36987	-3788.66772	-597.98163	1572.81079	-3841.20093	-415.81119	1530.20239	-3889.24951	
1038	4.321	-561.89435	1564.00537	-4031.37354	-540.65070	1573.10889	-3972.93457	-533.27832	1589.64563	-3926.32861	-570.53442	1567.36609	-3994.31714	-586.19543	1583.08289	-3967.71094	-626.83148	1581.81274	-3981.36011	-652.85657	1594.25830	-3977.38672	-529.22693	1556.45105	-4008.30322	-500.23807	1566.19446	-3997.23120	-478.06021	1550.00073	-4032.31250	-442.82126	1547.49536	-4048.46777	-509.46954	1532.72083	-3805.50024	-603.86456	1563.77966	-3856.99634	-422.74670	1521.49121	-3903.77393	
1039	4.325	-567.59564	1557.24426	-4048.05029	-546.68427	1566.52466	-3989.39063	-539.19861	1582.10510	-3943.24072	-576.60614	1560.45117	-4011.04688	-595.00806	1572.57422	-3985.18018	-634.11285	1566.08606	-4001.31055	-662.00946	1573.60193	-3999.51929	-535.20886	1549.58374	-4025.02002	-505.70496	1554.72485	-4015.80859	-488.61765	1534.82678	-4051.28638	-455.55331	1525.19482	-4069.37451	-516.45520	1522.55396	-3822.69214	-609.80450	1554.93677	-3873.07764	-429.66354	1513.89685	-3918.12329	
1040	4.329	-573.32208	1550.62085	-4064.86572	-552.72687	1560.11658	-4005.94409	-545.09552	1574.52417	-3960.20361	-582.61981	1553.81873	-4027.95313	-602.99243	1562.23157	-4002.95825	-639.86969	1550.96655	-4021.74121	-668.47510	1553.20789	-4022.21655	-541.16028	1543.15454	-4041.80981	-511.92419	1543.73401	-4034.23047	-500.29041	1520.65271	-4069.31982	-470.89087	1504.81091	-4089.43237	-523.23749	1512.10718	-3840.26123	-615.79742	1546.33960	-3889.53271	-436.41214	1506.87671	-3932.84546	
1041	4.333	-579.09912	1544.11682	-4081.83057	-558.74152	1553.90942	-4022.58081	-550.96887	1566.90271	-3977.21753	-588.55640	1547.49670	-4045.01782	-610.26154	1552.32263	-4020.77759	-644.26447	1537.08203	-4042.24951	-672.30780	1533.91516	-4045.02783	-547.09900	1537.11719	-4058.69043	-518.63110	1533.53906	-4052.22876	-512.53223	1508.06982	-4086.47852	-488.19363	1487.28137	-4108.81738	-529.77246	1501.55371	-3858.20703	-621.80933	1537.95972	-3906.32202	-442.89407	1499.79675	-3948.37085	
1042	4.338	-584.91235	1537.72278	-4098.96777	-564.66187	1547.91846	-4039.34155	-556.81860	1559.23999	-3994.28101	-594.42706	1541.46545	-4062.20874	-616.88654	1543.03894	-4038.29907	-647.68231	1525.02539	-4062.57422	-673.92114	1516.61060	-4067.55518	-553.04712	1531.38818	-4075.67896	-525.44073	1524.38904	-4069.63403	-524.73047	1497.62793	-4103.18555	-506.13290	1472.93665	-4127.22461	-536.17224	1491.01355	-3876.51782	-627.81598	1529.66577	-3923.36084	-449.15958	1492.18384	-3964.86304	
